<?xml version="1.0" encoding="utf-8"?>
<svg xmlns="http://www.w3.org/2000/svg" xmlns:xlink="http://www.w3.org/1999/xlink" version= "1.1" width="1300px" height="1000px" viewBox="-290 213 1300 1000">
<g id="layer1">
<g style="fill:rgb(0,174,199); fill-opacity:1.0; stroke-linejoin: miter">
<path d="M-290.001,211.8387C-290.30875,211.8387,-290.60388,211.96094,-290.82147,212.17854C-291.03906,212.39615,-291.16132,212.69127,-291.16132,212.999L-291.1603,1213.0C-291.1603,1213.6409,-290.6408,1214.1603,-290.0,1214.1603L1010.001,1214.1613C1010.3087,1214.1613,1010.6038,1214.0391,1010.8214,1213.8214C1011.039,1213.6038,1011.16125,1213.3087,1011.16125,1213.001L1011.1603,213.0C1011.1603,212.35919,1010.6408,211.8397,1010.0,211.8397L-290.001,211.8387 Z"/>
</g>
<g style="fill:rgb(255,255,255); fill-opacity:1.0; stroke-linejoin: miter">
<path d="M302.89316,482.08325L302.89325,482.0838L302.89325,482.0841L302.89316,482.08325 Z"/>
</g>
<g style="fill:rgb(0,0,0); fill-opacity:1.0; stroke-linejoin: miter">
<path d="M348.42453,1007.52386L46.763363,1007.5251L46.76338,518.55664L348.42508,518.5579L348.42453,1007.52386 Z M174.11998,1057.1735C174.11998,1043.7301,184.91624,1032.8253,198.23651,1032.8253C211.56094,1032.8248,222.35257,1043.7301,222.35257,1057.1735C222.35294,1070.6122,211.56085,1081.5363,198.23645,1081.537C184.91652,1081.518,174.11998,1070.6122,174.11998,1057.1735 M368.66464,1079.2726L368.70584,1079.2738L368.70615,493.28284L368.70615,493.2785L368.70615,493.1601L368.6971,493.16168C368.6331,479.781,357.77744,468.95215,344.37534,468.95215C344.2795,468.95215,344.20218,468.9616,344.11557,468.9616L344.11557,468.95215L289.46396,468.95355L130.02348,468.95264L50.813545,468.95325C37.429516,468.96136,26.583065,479.7895,26.509945,493.15985L26.505733,493.16125L26.50555,1079.2675L26.541683,1079.2684C26.532818,1079.5221,26.50555,1079.7728,26.50555,1080.0377C26.50555,1093.1478,37.52499,1103.7802,51.12298,1103.7802C51.32325,1103.7802,51.5194,1103.7528,51.719765,1103.7482L51.719765,1103.7802L344.70718,1103.7819L344.70718,1103.7804C357.93655,1103.7804,368.70102,1093.1527,368.70102,1080.0377C368.70584,1079.7782,368.67374,1079.5228,368.66464,1079.2726 Z"/>
</g>
<g style="fill:rgb(113,207,235); fill-opacity:1.0; stroke-linejoin: miter">
<path d="M348.42508,518.5569L348.42453,1007.52386L46.763363,1007.5251L46.76338,518.55664 Z"/>
</g>
<g style="fill:rgb(60,70,79); fill-opacity:1.0; stroke-linejoin: miter">
<path d="M198.23651,1032.8253C211.56094,1032.8248,222.35257,1043.7301,222.35257,1057.1735C222.35294,1070.6122,211.56085,1081.5363,198.23645,1081.537C184.91652,1081.518,174.11998,1070.6122,174.11998,1057.1735C174.11998,1043.7301,184.91624,1032.8253,198.23651,1032.8253 Z"/>
</g>
<g style="fill:rgb(255,255,255); fill-opacity:1.0; stroke-linejoin: miter">
<path d="M123.16487,515.4825L123.16487,515.4832L123.16487,515.48285C123.25746,517.1101,122.01311,518.5043,120.38585,518.59686C118.75905,518.69,117.36461,517.4459,117.271835,515.81866L117.271835,515.81903L117.271835,515.8183C117.179214,514.1909,118.42305,512.7967,120.05031,512.7039C121.677536,512.6113,123.071915,513.85504,123.16487,515.4825 Z"/>
</g>
<g style="fill:rgb(255,0,25); fill-opacity:0.99607843; stroke-linejoin: miter">
<path d="M10.685027,465.898L195.0029,465.89844L379.32083,465.8991Q379.32077,551.9177,379.32065,637.93634L10.68492,637.93695Q10.684936,551.9175,10.685027,465.898 Z"/>
</g>
<g style="fill:rgb(255,255,255); fill-opacity:1.0; stroke-linejoin: miter">
<path d="M47.769924,509.21173L5.0165553,509.2135L5.0164485,634.79974C5.0164485,636.27496,6.2135153,637.47186,7.6886435,637.47186L45.09779,637.4738C46.572735,637.47186,47.769802,636.27496,47.769802,634.79974L47.769924,509.21173 Z"/>
</g>
<g style="fill:rgb(255,255,255); fill-opacity:1.0; stroke-linejoin: miter">
<path d="M133.2766,509.21216L90.52328,509.21368L90.523155,634.7999C90.523155,636.27496,91.72033,637.47205,93.195274,637.47205L130.60442,637.4741C132.07945,637.4722,133.27654,636.27515,133.27654,634.8001L133.2766,509.21216 Z"/>
</g>
<g style="fill:rgb(255,255,255); fill-opacity:1.0; stroke-linejoin: miter">
<path d="M218.78311,509.21216L176.02983,509.21375L176.02986,634.8001C176.02986,636.27515,177.22704,637.4722,178.70198,637.4722L216.11111,637.4741C217.58615,637.4722,218.78333,636.27515,218.78333,634.8001L218.78311,509.21216 Z"/>
</g>
<g style="fill:rgb(255,255,255); fill-opacity:1.0; stroke-linejoin: miter">
<path d="M304.28998,509.21198L261.53656,509.21375L261.5366,634.80005C261.5366,636.275,262.73367,637.4721,264.20853,637.4721L301.61786,637.47424C303.0929,637.4723,304.2899,636.2752,304.2899,634.8002L304.28998,509.21198 Z"/>
</g>
<g style="fill:rgb(255,255,255); fill-opacity:1.0; stroke-linejoin: miter">
<path d="M389.7965,509.2119L347.04343,509.21393L347.0433,634.8002C347.0433,636.2752,348.24045,637.4723,349.71542,637.4723L387.1244,637.47406C388.59955,637.4723,389.7965,636.275,389.7965,634.80005L389.7965,509.2119 Z"/>
</g>
<g style="fill:rgb(0,0,0); fill-opacity:0.99607843; stroke-linejoin: miter">
<path d="M426.28378,1089.6134L426.28394,1089.6152L426.2836,1089.6141L426.28378,1089.6134 Z"/>
</g>
<g style="fill:rgb(255,255,255); fill-opacity:1.0; stroke-linejoin: miter">
<path d="M371.68063,1044.53L371.68063,1044.5315L371.68063,1044.5308L371.68063,1044.53 Z"/>
</g>
<g style="fill:rgb(0,0,0); fill-opacity:1.0; stroke-linejoin: miter">
<path d="M570.65796,914.4597L554.22925,915.43713L554.22925,915.4377L553.1472,928.96515L553.1472,928.96564L568.9663,928.045L568.9663,928.04565L570.65796,914.4597L570.65796,914.46075 Z M550.40405,915.66455L526.8268,917.0667L526.8268,917.0672L526.699,930.5033L549.3221,929.18787L549.3221,929.1889L550.40405,915.66455L550.40405,915.6654 Z M523.02893,917.29224L496.35727,918.8787L496.47852,932.2615L496.47852,932.2623L522.9013,930.7244L522.9013,930.7251L523.02893,917.29224L523.02893,917.293 Z M492.56342,919.1047L465.28464,920.72705L465.28464,920.72784L466.34415,934.01416L466.34415,934.01514L492.68484,932.4824L492.68484,932.4831L492.56342,919.1047L492.5636,919.1052 Z M461.49496,920.9522L429.04105,922.88245L429.04114,922.8831L431.5767,936.0372L431.5767,936.03766L462.55435,934.235L462.55435,934.2355L461.49496,920.9522L461.49515,920.953 Z M425.21942,923.1093L398.8697,924.6772L398.8697,924.6775L401.75873,937.7716L401.75873,937.7723L427.75388,936.2592L427.75397,936.2595L425.21942,923.1093L425.21942,923.11035 Z M568.49,931.87054L552.8419,932.78094L552.8419,932.78174L551.89087,944.66595L551.89087,944.6666L567.02203,943.6579L567.02203,943.65857L568.49,931.87054L568.49,931.87103 Z M549.01666,933.00366L526.6626,934.3038L526.6626,934.3046L526.54785,946.35425L526.54785,946.3546L548.06354,944.9209L548.06354,944.9219L549.01666,933.00366L549.01666,933.004 Z M522.86487,934.5247L496.51282,936.0581L496.51282,936.0588L496.62408,948.3478L496.62408,948.34845L522.7499,946.6068L522.7499,946.6078L522.86487,934.5247L522.86487,934.5254 Z M492.7192,936.27875L466.6456,937.79584L466.6457,937.7965L467.64072,950.2792L467.6409,950.2797L492.83066,948.60095L492.83066,948.6015L492.7192,936.27875L492.7192,936.2794 Z M462.85577,938.01636L432.30096,939.7945L432.30096,939.79517L434.74426,952.47076L434.74426,952.4716L463.85376,950.5316L463.85394,950.5318L462.85577,938.01636L462.85587,938.01685 Z M428.47824,940.0164L402.5866,941.52356L402.5866,941.5241L405.43292,954.4237L405.4331,954.42474L430.92783,952.725L430.9279,952.72565L428.47824,940.0164L428.47824,940.0174 Z M566.5443,947.49133L551.58496,948.4883L551.58496,948.4888L550.34827,963.94617L550.34827,963.94684L564.6131,963.0022L564.6131,963.0027L566.5443,947.49133L566.5445,947.492 Z M547.7574,948.7429L526.51154,950.15826L526.51154,950.1595L526.3652,965.5334L526.3652,965.53424L546.5209,964.19934L546.5209,964.2002L547.7574,948.7429L547.7574,948.7434 Z M522.71326,950.4115L496.65863,952.14777L496.65863,952.1486L496.79785,967.4904L496.79785,967.4907L522.5671,965.7844L522.5671,965.785L522.71326,950.4115L522.71344,950.412 Z M492.8652,952.40045L467.94226,954.06104L467.94226,954.0619L469.15903,969.31885L469.15903,969.3197L493.00443,967.7413L493.00443,967.74176L492.8652,952.40045L492.8652,952.401 Z M464.15546,954.3135L435.4678,956.22504L435.4678,956.2257L438.38428,971.3562L438.38428,971.3567L465.3723,969.5701L465.3723,969.571L464.15546,954.3135L464.15546,954.31396 Z M431.65143,956.47943L406.2599,958.17145L406.2599,958.17194L409.5896,973.2616L409.5896,973.26227L434.56766,971.6086L434.56766,971.60944L431.65143,956.47943L431.65143,956.4803 Z M564.13544,966.83734L550.0423,967.77014L550.0423,967.771L548.3121,989.4005L548.3121,989.4009L561.4081,988.7385L561.4081,988.7394L564.13544,966.83734L564.13544,966.83813 Z M546.2151,968.0234L526.32886,969.3395L526.32886,969.34L526.12744,990.5208L526.12744,990.52136L544.48956,989.5931L544.48956,989.59375L546.2151,968.0234L546.2151,968.02386 Z M522.5309,969.5907L496.83215,971.29144L496.83215,971.29175L497.02005,991.99084L497.02005,991.9922L522.32983,990.7131L522.32983,990.71375L522.5309,969.5907L522.5309,969.5914 Z M493.03867,971.5423L469.46057,973.1027L469.46057,973.1036L471.07117,993.3027L471.07117,993.3037L493.22604,992.1831L493.2262,992.1838L493.03867,971.5423L493.03867,971.5428 Z M465.674,973.3537L439.10825,975.1113L439.10825,975.1118L442.889,994.7263L442.889,994.7272L467.28033,993.4942L467.28033,993.4949L465.674,973.3537L465.674,973.3544 Z M435.29144,975.3639L410.41656,977.01L410.41656,977.01086L414.64066,996.15356L414.64066,996.15393L439.06097,994.9201L439.06097,994.9211L435.29144,975.3639L435.29144,975.36456 Z M560.93195,992.5609L548.0071,993.2143L548.0071,993.21515L546.9187,1006.8159L546.9187,1006.8162L558.73663,1006.19073L558.85236,1006.185Q559.05115,1006.19446,559.2304,1006.2255L559.2304,1006.2262L560.93195,992.5609L560.9321,992.5619 Z M544.18463,993.40704L526.0913,994.32153L526.0913,994.3222L525.9615,1007.9243L525.9615,1007.9248L543.0955,1007.01807L543.0958,1007.01874L544.18463,993.40704L544.18463,993.40784 Z M522.2938,994.51355L497.05447,995.7891L497.05447,995.7894L497.17856,1009.4466L497.17856,1009.44745L522.16425,1008.12476L522.16425,1008.1256L522.2938,994.51355L522.2938,994.51404 Z M493.2605,995.9805L471.37302,997.08673L471.37302,997.0877L472.46262,1010.7544L472.46262,1010.75494L493.38452,1009.64703L493.38452,1009.6479L493.2605,995.9805L493.2605,995.9813 Z M467.58212,997.2783L443.61423,998.48944L443.61423,998.4901L446.24524,1012.1408L446.24524,1012.1413L468.6725,1010.9546L468.6725,1010.95544L467.58212,997.2783L467.5824,997.2793 Z M439.7862,998.683L415.46994,999.91156L415.46994,999.9124L418.49213,1013.6085L418.49213,1013.6088L442.41904,1012.34314L442.41904,1012.3436L439.7862,998.683L439.78638,998.68384 Z M443.1442,1016.1055L419.3213,1017.3655L419.3213,1017.366L421.54343,1027.4376L445.1347,1026.4314L445.1348,1026.432L443.1442,1016.1055L443.14438,1016.1062 Z M468.97446,1014.73895L446.97064,1015.9028L446.97064,1015.9036L448.9685,1026.2678L448.9685,1026.2686L469.82285,1025.3789L469.82303,1025.3794L468.97446,1014.73895L468.97446,1014.7398 Z M493.41888,1013.4457L472.76437,1014.53894L472.76437,1014.5398L473.61584,1025.2172L473.61584,1025.2179L493.51782,1024.3682L493.51782,1024.369L493.41888,1013.4457L493.41888,1013.44653 Z M522.1279,1011.92694L497.213,1013.2454L497.213,1013.2459L497.3122,1024.2065L497.3122,1024.207L522.02106,1023.1527L522.02106,1023.1531L522.1279,1011.92694L522.1279,1011.9278 Z M542.7904,1010.834L525.9254,1011.7266L525.9254,1011.7273L525.8182,1022.9907L525.81836,1022.9913L541.8723,1022.30615L541.8723,1022.3068L542.7904,1010.834L542.7904,1010.83484 Z M558.76196,1009.98987L546.6132,1010.6324L546.6132,1010.6329L545.69257,1022.1428L545.69257,1022.1435L557.3102,1021.648L558.76196,1009.98987L558.76196,1009.99005 Z M627.7672,842.80835L628.60504,847.19415L584.3787,874.25134L565.68555,1026.1991Q565.551,1028.1034,563.7811,1029.4397Q562.7718,1030.1302,561.4442,1030.1898Q561.3343,1030.1947,561.2222,1030.1948L423.1425,1036.2408L423.13617,1036.2413Q421.61517,1057.6794,423.43152,1063.1997Q424.71863,1069.0782,429.64716,1070.6516Q434.51334,1072.7228,453.64508,1072.5587L556.4295,1070.1572Q560.07294,1070.7527,560.39764,1074.5071Q560.13654,1078.1788,556.3887,1078.8374Q548.3812,1079.0247,540.86206,1079.2031L540.85706,1079.2039Q543.6255,1081.997,543.92944,1085.9479Q544.15247,1090.3052,541.3408,1093.5852Q538.468,1096.7927,534.11273,1097.144Q534.0615,1097.1465,534.0101,1097.1489Q529.7715,1097.3383,526.50354,1094.561Q523.26746,1091.6355,522.93774,1087.3456Q522.7025,1083.051,525.49866,1079.7405Q525.576,1079.6538,525.6541,1079.5686L525.65967,1079.5696Q490.7373,1080.4166,467.93298,1081.0558Q461.37378,1081.2063,456.38297,1081.252L456.37668,1081.2522Q459.0259,1084.0071,459.32285,1087.867Q459.5459,1092.2238,456.734,1095.5035Q453.8613,1098.7114,449.50607,1099.0631Q449.45483,1099.0658,449.40366,1099.068Q445.1647,1099.2571,441.89688,1096.4802Q438.6609,1093.5548,438.33102,1089.2644Q438.09586,1084.9703,440.89218,1081.6598Q441.14575,1081.3743,441.41116,1081.1113L441.41736,1081.1111Q430.6888,1080.626,426.4618,1078.7606Q416.07404,1075.0585,414.35764,1061.9595Q412.99844,1053.8923,414.58777,1034.6683L414.5941,1034.6681Q414.12436,1033.9817,413.85156,1033.0062L389.20627,921.2815Q388.98193,920.1841,389.3085,919.11475Q390.38116,916.2416,393.37393,916.0433Q396.9513,916.4254,397.67014,919.2413L398.0414,920.9241L398.0414,920.92456L571.1351,910.62915L571.1353,910.63L576.1749,870.1587Q576.6,868.6928,578.0803,867.71954L622.7208,838.20123L623.8457,838.84564L623.6083,840.7456 Z"/>
</g>
<g style="fill:rgb(0,0,0); fill-opacity:1.0; stroke-linejoin: miter">
<path d="M714.63727,1070.4946Q714.92926,1070.4987,715.0649,1070.5826Q715.1828,1070.6427,715.2518,1070.7957L715.1434,1070.7977L713.4207,1070.701Q714.1816,1070.5085,714.60736,1070.495 M715.25824,1070.8037L741.88556,1072.2957Q743.44507,1080.9685,743.1117,1083.995Q742.93005,1087.303,740.4404,1090.7527Q707.1312,1093.0077,695.2687,1093.048Q681.5622,1093.2001,679.5799,1091.286Q677.11163,1089.0768,684.3361,1085.4928Q686.3033,1084.5802,688.2514,1084.1738Q689.0881,1084.0024,689.9589,1083.9078Q693.93286,1083.5953,694.4468,1083.4703Q696.0115,1083.236,697.8275,1082.6732Q702.8834,1081.0741,708.07947,1078.1547Q715.0041,1074.1132,715.2558,1070.8059 Z"/>
</g>
<g style="fill:rgb(125,43,66); fill-opacity:1.0; stroke-linejoin: miter">
<path d="M708.518,803.49L712.112,814.2577Q705.9071,823.8314,701.02496,827.42865Q695.5037,831.7363,690.4803,828.0052Q687.36554,825.7418,685.1691,821.65015Q683.0131,817.4082,683.67645,815.01416Q684.14105,813.4069,686.3339,812.64325Q687.1258,812.3601,688.38385,812.1247Q694.20135,811.2881,694.88934,811.042Q696.93036,810.552,699.11273,809.5433Q702.64056,807.96564,708.4997,803.5036 Z"/>
</g>
<g style="fill:rgb(0,0,0); fill-opacity:1.0; stroke-linejoin: miter">
<path d="M707.83325,664.5678Q716.7599,665.1589,723.209,669.08765Q728.2218,672.254,729.743,678.6808Q731.1114,684.0366,730.15204,694.4812L719.5599,713.38654Q701.6714,704.0814,695.5327,699.18823Q688.68774,694.07227,687.48596,688.6168Q686.72864,685.3876,687.55566,681.7927Q689.69385,673.93787,690.90076,673.22455Q694.77045,668.98206,699.7505,666.2636Q703.2988,664.40015,707.7694,664.5657 Z"/>
</g>
<g style="fill:rgb(255,186,172); fill-opacity:1.0; stroke-linejoin: miter">
<path d="M715.5543,678.86816Q716.7744,678.74835,718.5427,680.29517Q720.9587,682.3995,720.9384,683.5547Q721.57806,684.96344,720.30133,700.8012L722.2619,700.5003Q722.6463,694.0976,724.524,692.5697Q726.7244,691.1026,729.78094,693.0924Q730.3891,693.8519,730.56305,695.33527Q730.8898,704.2803,731.0741,704.97107Q731.4302,708.22784,732.2993,710.94745Q734.1095,716.65155,739.7367,724.1622L735.90796,744.9204Q723.42004,757.94934,717.82275,757.422Q713.6184,757.402,712.74036,753.64685Q712.43933,752.1532,712.6478,750.0016Q712.56714,749.74536,713.93677,741.4589Q714.16956,739.7122,714.1595,738.2638Q714.16693,734.928,712.4393,731.0275Q707.35675,732.40216,704.9843,730.3929Q699.6746,725.9626,695.33624,719.26965Q693.68536,716.57635,693.3004,714.7957Q693.1366,714.0713,693.0996,713.2988Q693.194,709.45715,693.022,709.32294Q692.9088,708.7624,692.6896,708.21967Q690.9048,704.60077,690.88574,703.9992Q690.60876,703.3629,690.4568,698.6847Q689.28784,695.7015,689.33655,693.67725Q689.3793,685.4706,691.30725,684.5693Q691.6764,684.3256,692.4646,684.27136Q697.3775,684.5746,699.28174,684.0988Q709.96533,679.3459,715.46985,678.8695 Z"/>
</g>
<g style="fill:rgb(255,186,172); fill-opacity:1.0; stroke-linejoin: miter">
<path d="M696.54297,784.37585L708.8829,801.9061Q704.6159,808.0261,700.60175,810.60535Q696.7242,813.3156,686.3448,817.0194L697.2054,828.8961Q681.37335,836.3559,673.1652,838.2915Q669.2703,839.26337,665.52875,839.60077L651.3809,840.4276Q648.8022,840.7236,646.82245,841.4511Q644.5125,842.341,642.61334,844.0164Q641.9163,844.4145,636.6665,850.2656Q635.50964,851.4353,634.32385,852.2686Q631.7,854.11224,627.7453,854.6417Q622.6464,855.0677,621.8481,853.55493Q621.632,852.9925,620.9195,851.8442L625.83734,848.7903Q626.66766,847.8475,626.962,846.7534Q627.5486,843.89465,624.80334,842.15424Q622.83704,841.16583,620.244,841.8798Q618.8805,842.2359,617.39075,843.00543L612.7916,845.729Q611.72485,846.20416,611.3518,845.628Q610.6647,840.41876,615.4463,834.8057Q616.9568,833.1884,619.8032,831.7447Q620.57385,831.19727,628.70996,828.2228Q630.2744,827.5453,631.3176,826.8334Q632.2965,826.17755,633.1395,825.4078Q637.2241,821.0876,638.18445,820.5978Q647.07666,814.9073,649.4292,813.1992L670.6542,797.78723Q676.49426,793.6279,680.5586,791.086Q690.16797,785.07306,696.4077,784.3925 Z"/>
</g>
<g style="fill:rgb(125,43,66); fill-opacity:1.0; stroke-linejoin: miter">
<path d="M741.8898,719.1827L742.9332,725.14087Q758.5705,732.47626,765.7763,742.0455Q771.89246,749.92816,773.6267,760.3216Q776.0032,774.0261,773.3189,794.33386Q771.9965,804.273,769.7131,814.4549Q768.06024,822.1777,763.7691,836.1804Q763.2027,838.29254,763.0568,840.0701Q762.8945,842.0109,763.2459,843.84344Q765.6623,850.60114,765.80634,854.5801L709.7886,858.69745Q710.1952,855.6536,709.96497,854.511Q707.4363,850.5173,706.64185,842.1105Q706.1825,839.9535,704.4417,807.32947Q704.0723,802.1494,703.4648,799.34686Q703.13385,794.55566,693.90186,784.40027L705.152,773.3992Q702.8452,757.46686,703.4038,752.9897Q703.5858,750.4586,704.671,748.69464Q705.07056,747.72766,708.09656,745.581Q708.5668,745.0314,708.65466,744.62256Q709.1112,743.2279,708.041,739.98444L713.97845,736.3412L714.2458,737.3393Q729.3031,724.7071,741.8013,719.2267 Z"/>
</g>
<g style="fill:rgb(69,24,37); fill-opacity:1.0; stroke-linejoin: miter">
<path d="M752.8985,846.1074L764.44,846.4066Q771.6736,857.52246,771.8833,869.1183Q772.07947,877.5557,769.4267,885.6398Q768.3132,889.01483,766.7009,892.5782Q758.59827,909.3625,758.1873,910.8212Q755.8615,916.48987,754.9229,921.26074Q752.49225,932.9545,755.8315,946.4312Q758.0097,955.32324,763.6479,967.874Q772.38525,986.804,779.78485,1002.0181L789.54144,1020.1951Q795.2003,1032.5488,806.2876,1059.5198L777.87036,1065.1614Q776.7589,1052.5802,770.0798,1038.527Q763.7552,1024.7185,742.345,988.858L743.3163,1075.1581L711.2064,1074.2043Q716.10834,1056.461,715.7853,1040.6322Q715.7626,1033.931,714.825,1023.8569L709.8587,976.8366Q708.91534,965.83624,708.6186,956.44806Q708.2222,944.41296,708.5121,930.4939L710.1696,880.14404Q710.3041,868.7134,709.49304,854.2645Q716.5105,845.75165,752.7115,846.11145 Z"/>
</g>
<g style="fill:rgb(0,0,0); fill-opacity:1.0; stroke-linejoin: miter">
<path d="M762.2732,767.1001Q759.7074,774.9443,747.3307,783.45074Q736.9086,790.76166,705.3693,807.26575L762.2362,767.12646 Z"/>
</g>
<g style="fill:rgb(125,43,66); fill-opacity:1.0; stroke-linejoin: miter">
<path d="M704.3139,808.4889Q706.7095,819.4539,705.2317,823.6681Q704.48096,825.7295,702.6734,826.9729Q701.1899,828.08545,697.25275,829.1838L704.30585,808.51135 Z"/>
</g>
<g style="fill:rgb(255,11,0); fill-opacity:0.18431373; stroke-linejoin: miter">
<path d="M724.4654,719.5534L720.29675,732.7973L714.3033,737.1763L712.48065,730.8729Q717.86926,727.0531,719.9821,725.05975Q722.2105,723.0291,724.45184,719.5734 Z"/>
</g>
<g style="fill:rgb(125,43,66); fill-opacity:1.0; stroke-linejoin: miter">
<path d="M735.8876,718.51245Q736.68726,719.83136,737.63025,721.2179Q739.7501,720.1264,741.8013,719.2267L741.8898,719.1827L742.9332,725.14087Q758.5705,732.47626,765.7763,742.0455Q771.89246,749.92816,773.6267,760.3216Q776.0032,774.0261,773.3189,794.33386Q771.9965,804.273,769.7131,814.4549Q768.06024,822.1777,763.7691,836.1804Q763.2027,838.29254,763.0568,840.0701Q762.8945,842.0109,763.2459,843.84344Q763.7222,845.1746,764.1099,846.398L764.1109,846.39905L764.44,846.4066Q771.6736,857.52246,771.8833,869.1183Q772.07947,877.5557,769.4267,885.6398Q768.3132,889.01483,766.7009,892.5782Q766.4193,893.16095,766.1472,893.7255L766.1461,893.7262Q764.6322,896.4817,763.2378,899.7892L763.23645,899.7902Q758.4989,909.71466,758.1873,910.8212Q755.8615,916.48987,754.9229,921.26074Q752.49225,932.9545,755.8315,946.4312Q758.0097,955.32324,763.6479,967.874Q772.38525,986.804,779.78485,1002.0181L789.54144,1020.1951Q795.2003,1032.5488,806.2876,1059.5198L804.66895,1059.8411L804.6698,1059.8419Q805.2451,1061.5226,805.75354,1063.0355L805.7528,1063.036L805.63696,1063.2369Q757.0117,986.8222,749.3427,931.50195L749.3414,931.5021L743.56055,978.658Q743.17395,981.7995,742.345,988.858L743.3163,1075.1581L742.3706,1075.1299L742.36914,1075.1307Q742.4264,1075.4901,742.4802,1075.8378Q740.4398,1075.4233,738.10876,1074.898Q737.66034,1045.961,739.0233,1021.11365Q739.9587,945.28876,765.943,878.6518Q755.54913,842.02563,764.99817,779.6964L761.0286,742.6834L735.15466,718.5362L735.19836,718.53534Q735.5437,718.5239,735.8861,718.51245L735.8876,718.5131L735.8876,718.51245L735.8876,718.5131L735.8876,718.51245 Z"/>
</g>
<g style="fill:rgb(255,0,9); fill-opacity:0.17254902; stroke-linejoin: miter">
<path d="M624.32904,854.18164Q631.013,850.42804,632.5865,848.70325Q633.49677,847.73334,633.7262,846.9392L633.8218,843.2434Q633.9636,842.31134,634.53894,841.42175Q635.9064,839.316,639.9928,836.99457Q650.2524,831.1451,687.12897,818.41504L642.29266,837.8724Q637.3425,841.5388,636.04834,843.3537Q635.4396,844.14246,635.1946,845.01013Q634.92664,847.8077,634.77954,848.1964Q634.376,849.1636,633.65753,849.8159Q630.4355,852.4122,624.439,854.1753 Z"/>
</g>
<g style="fill:rgb(0,0,0); fill-opacity:0.99607843; stroke-linejoin: miter">
<path d="M577.257,885.4324L577.257,885.4327Q577.257,885.4337,577.257,885.4324 Z"/>
</g>
<g>
<g style="fill:rgb(255,255,255); fill-opacity:1.0; stroke-linejoin: miter">
<path d="M189.46323,729.3166Q190.2126,730.27026,190.68947,731.39435Q191.16635,732.51843,191.4729,733.7446Q191.74539,734.93677,191.91571,736.1971Q192.08601,737.4574,192.25632,738.68365Q192.42664,741.3405,192.63103,743.9974Q192.8013,746.65424,192.97165,749.31116L187.38544,749.31116Q184.66046,749.3111,181.9014,749.24304Q182.4464,746.5861,182.99141,743.9633Q183.50237,741.3747,184.28577,738.7178Q185.13731,736.1971,186.29543,733.7106Q187.45355,731.2581,189.46323,729.3166 Z M189.46321,721.4821Q187.58981,721.6866,186.12514,722.70844Q184.69452,723.69617,183.53639,725.1269Q182.41234,726.55743,181.52672,728.2265Q180.6411,729.8956,179.89172,731.3603Q178.35895,734.9029,177.16675,738.51337Q175.97458,742.08997,174.8846,745.70056Q173.72646,749.48157,172.7727,753.26245Q171.85303,757.04333,171.68274,760.8924Q171.68274,761.81213,171.78491,762.6977Q171.85304,763.58344,172.1596,764.43494Q172.60242,765.25244,173.4199,765.6952Q174.2374,766.104,175.15709,766.2402Q175.90646,766.2062,176.4174,765.7974Q176.92831,765.38873,177.30302,764.7756Q177.64363,764.1624,177.91612,763.48126Q178.18863,762.8,178.42706,762.2209Q178.86987,760.68805,179.41486,759.1894Q179.95987,757.6906,180.40266,756.1578Q181.9014,755.8853,183.36607,755.74896Q184.83076,755.6467,186.26137,755.6467Q186.55656,755.6241,186.84799,755.62415Q187.43083,755.62415,187.99857,755.715Q188.6117,755.7916,189.26318,755.7916Q189.4803,755.7916,189.70166,755.783Q190.51917,755.8171,191.34517,755.81714Q192.17117,755.81714,193.0057,755.7831Q193.1079,757.4862,193.31229,759.2234Q193.48257,760.92645,193.41447,762.69763Q193.44852,763.48114,193.82321,764.1623Q194.19788,764.8437,194.77695,765.32056Q195.32196,765.79736,196.07133,766.0018Q196.42899,766.104,196.81218,766.104Q197.19537,766.104,197.6041,766.0017Q198.38754,765.9336,199.00067,765.52484Q199.57973,765.11615,200.02255,764.503Q200.46535,763.92395,200.73785,763.2087Q201.01035,762.4933,201.14659,761.81213Q201.35097,760.7561,201.28284,759.7343Q201.24878,758.74646,201.04439,757.7586Q200.84004,756.80493,200.53346,755.8171Q200.22693,754.8634,199.92033,753.9096Q199.2391,750.9121,198.89848,747.8464Q198.59192,744.7809,198.3535,741.7152Q198.0469,738.5474,197.74033,735.44775Q197.43378,732.3481,196.68443,729.3166Q196.34381,727.9881,195.76474,726.5915Q195.21976,725.19495,194.33418,724.071Q193.48259,722.94684,192.25635,722.1976Q191.06413,721.4821,189.46321,721.4821 Z M260.6052,721.62573Q259.4903,721.6257,258.37112,721.68646Q255.27144,721.82275,251.76306,722.504Q250.80933,722.77655,249.78746,723.08307Q248.7656,723.3897,247.81186,723.83246Q246.8581,724.27527,246.04062,724.9565Q245.25719,725.60364,244.78029,726.5915Q243.65623,730.7131,242.66841,734.83466Q241.71466,739.05835,240.86311,743.2479Q240.04564,747.4376,239.77315,751.69543Q239.70502,754.04584,239.8072,756.3961Q239.90938,758.71234,240.52252,760.99457Q240.76093,761.9823,241.0675,762.97003Q241.33998,763.9579,241.885,764.8436Q242.46404,765.627,243.4178,766.0358Q244.37154,766.4446,245.35936,766.5127Q247.13054,766.4785,248.86775,766.0358Q250.60495,765.59296,252.30804,764.9118Q254.01111,764.2644,255.68018,763.4811Q257.3152,762.6976,258.95013,761.91425Q260.48294,761.0626,262.11795,760.27924Q263.75293,759.49567,265.31976,758.5761Q266.88663,757.6905,268.2832,756.5664Q269.64566,755.47644,270.63345,754.0117L270.63345,753.84143Q270.12253,752.6152,268.93033,752.002Q267.98285,751.5004,266.89847,751.5004Q266.65747,751.5004,266.40976,751.52515Q265.18353,751.6273,263.99133,751.9339Q262.7992,752.2405,261.60706,752.68335Q260.4489,753.1262,259.29074,753.7051Q258.16675,754.2502,257.04266,754.8292Q254.86272,756.0214,252.54645,757.1114Q250.2302,758.20135,247.81186,758.6783Q247.40308,756.7708,247.16461,754.8634Q246.92618,752.9559,247.09651,751.0143Q247.13055,749.7199,247.57341,748.4596Q248.01619,747.19934,248.79964,746.10925Q249.54898,745.05334,250.63896,744.2357Q251.72897,743.45233,253.02335,743.07776Q255.54391,742.60095,258.03052,742.3284Q260.48294,742.0899,263.0377,741.8174Q263.82108,741.74927,264.7407,741.5449Q265.6604,741.34045,266.4779,740.93176Q267.26135,740.523,267.8404,739.84174Q268.38538,739.1946,268.4535,738.20685Q268.58978,737.45734,268.31726,736.81024Q268.0788,736.1971,267.56793,735.75433Q267.05692,735.3455,266.37573,735.14105Q265.82098,734.96594,265.26627,734.966Q265.17386,734.966,265.08133,734.9709Q264.75204,734.95953,264.42374,734.9595Q262.78214,734.9595,261.16418,735.2433Q259.2227,735.5499,257.34924,735.9587Q255.3736,736.2994,253.43204,736.708Q251.52461,737.0828,249.54897,737.1508Q249.54897,736.7761,249.48085,736.4014Q249.44678,736.0268,249.54897,735.6521Q249.61713,735.03894,249.75334,734.3917Q249.85553,733.7786,250.02583,733.1655Q250.40057,731.63275,251.6268,730.5087Q252.81898,729.3847,254.24956,728.8054Q255.74828,728.2265,257.31516,727.954Q258.56866,727.73596,259.84393,727.7359Q260.16278,727.73596,260.4829,727.74963Q261.60703,727.81775,262.76505,727.8518Q263.92325,727.8518,265.08133,727.8178Q265.59222,727.8177,266.10315,727.6474Q266.61414,727.47705,267.05692,727.1364Q267.46567,726.82983,267.73822,726.35297Q268.01068,725.87604,268.0448,725.2971Q268.11295,724.5478,267.84042,723.90063Q267.60196,723.28754,267.09103,722.8106Q266.61417,722.36786,265.96698,722.09534Q265.31976,721.8569,264.60446,721.82275Q262.61185,721.6257,260.6052,721.62573 Z M216.66425,722.18616Q216.36484,722.18616,216.03178,722.2315Q215.2143,722.4018,214.60117,722.8787Q213.98805,723.3555,213.54524,724.03687Q213.10243,724.7181,212.864,725.50146Q212.62556,726.28485,212.55743,727.03436Q212.31898,728.7034,212.18274,730.3384Q212.0465,731.9393,211.97836,733.6084Q211.91025,735.3456,211.87619,737.01465Q211.84212,738.68365,211.67184,740.42096Q211.39934,742.4306,211.09276,744.4062Q210.7862,746.3478,210.41153,748.32336Q210.03682,750.2649,209.83247,752.13837Q209.62808,754.0118,209.49182,755.9533Q209.49182,756.70264,209.5259,757.452Q209.5259,758.16736,209.59404,758.8486Q209.59404,760.21106,209.79837,761.53955Q210.00275,762.868,210.51367,764.0942Q211.229,765.35455,212.55743,766.0017Q213.8518,766.6148,215.28242,766.7512Q216.12033,766.8431,216.95825,766.8431Q218.91345,766.84314,220.86862,766.34235Q223.62766,765.6271,226.28452,764.4349Q227.47668,763.85583,228.77103,763.1745Q230.06541,762.52734,231.22353,761.6757Q232.34756,760.82416,233.2332,759.73425Q234.11882,758.6783,234.52757,757.2817Q234.80006,756.5324,234.59567,755.8852Q234.3913,755.27203,233.88037,754.86334Q233.4035,754.4546,232.72226,754.28424Q232.41948,754.22363,232.10994,754.22363Q231.72307,754.22363,231.32573,754.3184Q230.3379,754.52277,229.35013,755.0336Q228.39636,755.54456,227.44263,755.9533Q226.38666,756.46423,225.3648,756.97516Q224.37703,757.48615,223.3211,757.96295Q221.58394,758.6443,219.8127,759.15515Q218.27994,759.6061,216.66759,759.6061Q216.45259,759.6061,216.23618,759.5981Q215.7593,757.8949,215.82742,756.08954Q215.89555,754.3184,215.99771,752.51306Q216.27023,749.58356,216.71304,746.68835Q217.15587,743.8271,217.66676,740.8977Q218.24582,738.0365,218.79082,735.2094Q219.3358,732.38214,219.64238,729.4869Q219.77864,728.43097,219.81268,727.06836Q219.84676,725.74,219.50613,724.5819Q219.16551,723.4578,218.34804,722.7425Q217.71219,722.18616,216.66425,722.18616 Z M153.5973,721.5148Q150.99359,721.5149,148.45222,722.23157Q145.82942,722.981,143.47914,724.54785Q142.28694,725.2631,141.231,726.18286Q140.20915,727.1025,139.35759,728.22656Q138.5401,729.3166,137.96104,730.5769Q137.41602,731.8031,137.21164,733.16565Q136.9051,735.7203,136.93916,738.2409Q136.97324,740.7616,137.85886,743.0778Q138.19946,744.33813,138.91478,745.394Q139.63008,746.44995,140.65196,747.2334Q141.63976,747.9828,142.86603,748.3916Q143.80272,748.68604,144.84456,748.68604Q145.1287,748.6859,145.42067,748.664Q145.63966,748.67377,145.85725,748.67377Q147.16275,748.67377,148.41817,748.32336Q149.88284,747.9487,151.38158,747.50586Q152.88034,747.029,154.37907,746.6203Q155.84377,746.2456,157.37654,746.2455Q157.46089,746.2391,157.54306,746.2391Q158.32382,746.2391,158.90936,746.8246Q159.55655,747.43774,159.6928,748.25525Q159.8972,750.09467,159.6928,751.934Q159.6928,753.90967,158.77312,755.54456Q157.88748,757.1796,156.4228,758.3379Q154.95816,759.4959,153.15285,760.075Q151.83986,760.4713,150.52692,760.4713Q150.03455,760.47125,149.54224,760.4155Q148.04346,760.4155,146.57878,760.1091Q145.14818,759.8364,143.85384,759.3256Q143.0704,758.9509,142.35509,758.44006Q141.63977,757.96313,140.85634,757.5543Q140.1751,757.1115,139.39165,756.839Q138.60825,756.6007,137.79073,756.4644Q137.67393,756.44495,137.56273,756.44495Q137.28467,756.44495,137.04137,756.5665Q136.70074,756.73694,136.42825,757.04346Q136.1898,757.35,136.05356,757.75867Q135.95135,758.1334,135.98543,758.5081Q135.98543,759.6662,136.4623,760.62Q136.9051,761.5397,137.65446,762.3231Q138.40385,763.07245,139.32353,763.68555Q140.24324,764.29877,141.1629,764.7757Q143.10446,765.8656,145.28444,766.47864Q147.43036,767.05786,149.71252,767.09174Q149.84029,767.0947,149.96802,767.0947Q151.37311,767.0948,152.77815,766.7513Q154.31094,766.4105,155.74156,765.6952Q157.13812,765.014,158.43253,764.0262Q159.69281,763.07245,160.7487,761.8802Q162.86061,759.4619,164.12088,756.60065Q165.38118,753.7394,165.75587,750.63965Q165.96025,748.4937,165.5515,746.3818Q165.14276,744.304,164.01868,742.56683Q162.92871,740.6934,161.05527,739.5352Q159.21593,738.3772,156.96782,738.3772Q155.57124,738.4453,154.14062,738.82Q152.7441,739.1947,151.4497,739.7738Q150.25752,740.21655,149.06532,740.76154Q147.8732,741.2725,146.57881,741.34064Q146.06789,741.34064,145.62508,741.1363Q145.21632,740.9318,144.87569,740.6253Q144.53508,740.3187,144.2285,739.9441Q143.95601,739.5694,143.71758,739.1947Q143.34288,738.3091,143.07039,737.38934Q142.83194,736.5037,142.90007,735.55Q143.07039,733.91504,144.02412,732.4503Q144.97787,730.98566,146.4085,729.9978Q147.70287,728.976,149.30377,728.3968Q150.87062,727.81775,152.50565,727.81775Q153.59564,727.81775,154.58344,728.1924Q155.57124,728.5331,156.55907,728.8397Q157.61497,729.2143,158.6028,729.58905Q159.5906,729.9297,160.68057,729.9977Q160.902,730.03186,161.16599,730.03186Q161.42993,730.03186,161.73653,729.9977Q162.31557,729.9637,162.8265,729.75934Q163.33745,729.589,163.67807,729.18024Q164.01868,728.80554,164.01868,728.1585Q164.08682,726.3191,162.99683,725.0587Q161.90686,723.79846,160.40811,723.04913Q158.9775,722.1975,157.27435,721.89087Q155.57124,721.5844,153.83406,721.5162Q153.7156,721.5148,153.5973,721.5148 Z"/>
</g>
</g>
<g style="fill:rgb(0,0,0); fill-opacity:0.54901963; stroke-linejoin: miter">
<path d="M949.5743,1098.5529L944.5878,1099.8129Q909.13763,1103.6193,737.1332,1105.9017Q563.9384,1108.182,329.2361,1107.7511Q105.24312,1107.1486,-29.052944,1104.2252Q-72.082855,1103.2804,-99.940056,1102.1661L-123.35312,1101.0206Q-142.64772,1099.8383,-142.86467,1098.5529Q-137.00731,1094.6083,17.119337,1091.9891Q171.24611,1089.3695,403.35474,1089.2701Q635.4637,1089.37,789.5901,1091.9891Q943.717,1094.6085,949.5743,1098.5529 Z"/>
</g>
<g style="fill:rgb(0,0,0); fill-opacity:1.0; stroke-linejoin: miter">
<path d="M803.1725,1055.5071Q807.7991,1068.7844,809.0962,1073.7227Q810.06354,1077.0011,809.0456,1077.9316Q808.48224,1078.6208,806.3285,1079.2838Q798.51245,1081.5215,793.3653,1082.8969Q781.71716,1086.017,774.1206,1087.2701Q762.20593,1089.211,753.16235,1088.262Q743.3292,1087.0886,745.8159,1084.2909Q746.74194,1083.2639,749.92896,1081.8025L761.8198,1076.8397L766.052,1074.909Q769.69336,1073.1052,772.4398,1071.0776Q779.5873,1065.8674,779.3396,1059.4442L803.13354,1055.514 Z"/>
</g>
<g style="fill:rgb(255,255,255); fill-opacity:1.0; stroke-linejoin: miter">
<path d="M116.08461,682.36554L116.08461,682.36554L281.8756,682.3664C283.46005,682.36646,284.74454,683.65094,284.74454,685.2355L284.74454,685.2355L284.74454,806.9502C284.74454,808.5347,283.46008,809.8192,281.8756,809.81915L281.8756,809.81915L116.08468,809.8205C115.32378,809.8205,114.59403,809.51825,114.055984,808.98016C113.51794,808.4421,113.21566,807.71234,113.21566,806.9514L113.21566,806.9514L113.215614,685.23456C113.215614,684.4736,113.51789,683.74396,114.05593,683.2059C114.59398,682.66785,115.32372,682.3656,116.08461,682.36554L116.08461,682.36554 M116.08459,688.1035L118.953606,685.2346L118.95364,806.9514L116.08465,804.0825L281.87552,804.0813L279.0066,806.9502L279.00662,685.2355L281.87555,688.1044L116.08459,688.1035 Z"/>
</g>
</g>
</svg>